HIERARCHY
ROOT Hips
{
	OFFSET 0.00 86.18 0.00
	CHANNELS 6 Xposition Yposition Zposition Yrotation Xrotation Zrotation
	JOINT RightUpLeg
	{
		OFFSET -9.25 0.00 0.00
		CHANNELS 6 Xposition Yposition Zposition Yrotation Xrotation Zrotation
		JOINT RightLeg
		{
			OFFSET 0.00 -42.00 0.00
			CHANNELS 6 Xposition Yposition Zposition Yrotation Xrotation Zrotation
			JOINT RightFoot
			{
				OFFSET 0.00 -42.00 0.00
				CHANNELS 6 Xposition Yposition Zposition Yrotation Xrotation Zrotation
				End Site
				{
					OFFSET 0 -1.14 11.36
				}
			}
		}
	}
	JOINT LeftUpLeg
	{
		OFFSET 9.25 0.00 0.00
		CHANNELS 6 Xposition Yposition Zposition Yrotation Xrotation Zrotation
		JOINT LeftLeg
		{
			OFFSET 0.00 -42.00 0.00
			CHANNELS 6 Xposition Yposition Zposition Yrotation Xrotation Zrotation
			JOINT LeftFoot
			{
				OFFSET 0.00 -42.00 0.00
				CHANNELS 6 Xposition Yposition Zposition Yrotation Xrotation Zrotation
				End Site
				{
					OFFSET 0 -1.14 11.36
				}
			}
		}
	}
	JOINT Spine
	{
		OFFSET 0.00 10.46 0.00
		CHANNELS 6 Xposition Yposition Zposition Yrotation Xrotation Zrotation
		JOINT Spine1
		{
			OFFSET 0.00 9.75 0.00
			CHANNELS 6 Xposition Yposition Zposition Yrotation Xrotation Zrotation
			JOINT Spine2
			{
				OFFSET 0.00 10.15 0.00
				CHANNELS 6 Xposition Yposition Zposition Yrotation Xrotation Zrotation
				JOINT Spine3
				{
					OFFSET 0.00 9.75 0.00
					CHANNELS 6 Xposition Yposition Zposition Yrotation Xrotation Zrotation
			 		JOINT Neck
					{
						OFFSET 0.00 10.42 0.00
						CHANNELS 6 Xposition Yposition Zposition Yrotation Xrotation Zrotation
						JOINT Head
						{
							OFFSET 0.00 9.50 0.00
							CHANNELS 6 Xposition Yposition Zposition Yrotation Xrotation Zrotation
							End Site
							{
								OFFSET 0 16.00 0
							}
						}    
					} 
					JOINT RightShoulder
	 					{
						OFFSET -3.20 6.94 0.00
						CHANNELS 6 Xposition Yposition Zposition Yrotation Xrotation Zrotation
						JOINT RightArm
						{
							OFFSET -16.00 0.00 0.00
							CHANNELS 6 Xposition Yposition Zposition Yrotation Xrotation Zrotation
							JOINT RightForeArm
							{
								OFFSET -26.50 0.00 0.00
								CHANNELS 6 Xposition Yposition Zposition Yrotation Xrotation Zrotation
								JOINT RightHand
								{
									OFFSET -26.00 0.00 0.00
									CHANNELS 6 Xposition Yposition Zposition Yrotation Xrotation Zrotation
									End Site
									{
										OFFSET -17.50 0 0
									}
								}
							}
						}	
					}
					JOINT LeftShoulder
					{
						OFFSET 3.20 6.94 0.00
						CHANNELS 6 Xposition Yposition Zposition Yrotation Xrotation Zrotation
						JOINT LeftArm
						{
							OFFSET 16.00 0.00 0.00
							CHANNELS 6 Xposition Yposition Zposition Yrotation Xrotation Zrotation
							JOINT LeftForeArm
							{
								OFFSET 26.50 0.00 0.00
								CHANNELS 6 Xposition Yposition Zposition Yrotation Xrotation Zrotation
								JOINT LeftHand
								{
									OFFSET 26.00 0.00 0.00
									CHANNELS 6 Xposition Yposition Zposition Yrotation Xrotation Zrotation
									End Site
									{
										OFFSET 17.50 0 0
									}
								}
							}
						}
					}     			
				}
			}
		} 
	} 
}
MOTION
Frames: 16
Frame Time: 0.010
0.09 92.70 -0.23 -95.30 -0.25 -1.20 -9.23 0.01 0.06 -32.92 -2.32 -4.87 0.09 -42.00 0.04 17.30 3.45 1.73 0.16 -42.27 0.11 7.67 -1.64 6.09 9.22 -0.01 -0.04 19.10 -7.65 1.03 -0.01 -42.01 -0.01 -11.65 10.01 3.47 0.13 -41.72 0.18 -0.35 -0.72 -1.52 0.02 10.46 0.03 -0.80 0.82 1.47 0.02 9.75 0.02 -0.20 0.21 0.37 0.01 10.15 0.00 -0.33 0.35 0.61 0.02 9.75 0.00 -1.37 -0.42 -0.28 -0.03 10.42 0.05 -1.39 -0.45 -0.28 0.00 9.49 0.04 -25.11 -13.95 -2.32 -3.19 6.95 -0.02 3.13 2.12 3.35 -15.98 0.01 0.00 3.06 1.10 79.85 -26.50 0.01 0.03 6.07 0.52 0.37 -26.00 0.01 0.01 5.47 5.89 -11.61 3.21 6.94 -0.01 1.60 1.12 -4.22 16.02 -0.01 0.01 -6.05 8.02 -79.41 26.51 0.02 -0.02 -10.68 0.61 -2.28 26.00 0.00 -0.06 -6.86 18.02 9.35 
0.09 92.70 -0.24 -95.29 -0.24 -1.19 -9.23 0.01 0.05 -32.89 -2.32 -4.88 0.08 -42.00 0.04 17.25 3.44 1.73 0.16 -42.27 0.12 7.67 -1.64 6.08 9.22 -0.01 -0.02 19.16 -7.58 1.04 -0.02 -42.01 0.01 -11.74 9.94 3.46 0.12 -41.73 0.19 -0.34 -0.73 -1.52 0.02 10.46 0.03 -0.82 0.81 1.46 0.02 9.75 0.02 -0.20 0.21 0.37 0.01 10.15 0.00 -0.34 0.35 0.61 0.02 9.75 0.01 -1.37 -0.42 -0.28 -0.03 10.42 0.05 -1.39 -0.45 -0.28 0.00 9.49 0.03 -25.11 -13.91 -2.32 -3.19 6.96 -0.01 3.13 2.11 3.35 -15.98 0.01 0.00 3.08 1.10 79.86 -26.50 0.00 0.03 6.02 0.50 0.35 -26.00 0.00 0.01 5.46 5.89 -11.61 3.21 6.93 -0.00 1.62 1.11 -4.22 16.02 -0.01 0.01 -6.05 8.02 -79.42 26.51 0.02 -0.02 -10.72 0.61 -2.30 26.00 0.01 -0.06 -6.87 18.01 9.36 
0.09 92.70 -0.25 -95.27 -0.24 -1.18 -9.23 0.01 0.05 -32.88 -2.31 -4.89 0.08 -42.00 0.04 17.21 3.42 1.74 0.17 -42.26 0.12 7.70 -1.62 6.05 9.21 -0.02 -0.04 19.08 -7.65 1.04 -0.02 -42.01 -0.01 -11.70 10.05 3.44 0.12 -41.73 0.21 -0.30 -0.76 -1.51 0.02 10.46 0.03 -0.82 0.80 1.47 0.03 9.75 0.02 -0.20 0.20 0.37 0.02 10.15 0.00 -0.33 0.35 0.61 0.02 9.75 0.01 -1.37 -0.42 -0.28 -0.02 10.42 0.04 -1.39 -0.45 -0.28 0.01 9.49 0.02 -25.13 -13.88 -2.33 -3.19 6.95 -0.01 3.07 2.11 3.34 -15.98 0.01 0.01 3.11 1.09 79.87 -26.50 -0.00 0.03 5.97 0.48 0.36 -26.00 -0.00 0.02 5.46 5.89 -11.62 3.21 6.93 -0.00 1.60 1.10 -4.23 16.02 -0.01 0.01 -6.07 8.01 -79.42 26.51 0.02 -0.03 -10.73 0.62 -2.32 26.00 0.01 -0.06 -6.87 18.01 9.36 
0.09 92.70 -0.25 -95.26 -0.23 -1.17 -9.23 0.01 0.05 -32.86 -2.33 -4.90 0.08 -42.00 0.03 17.17 3.42 1.74 0.17 -42.26 0.12 7.69 -1.62 6.05 9.22 -0.01 -0.01 19.14 -7.58 1.03 -0.03 -42.01 0.02 -11.76 9.98 3.45 0.12 -41.73 0.22 -0.31 -0.78 -1.52 0.02 10.46 0.03 -0.81 0.79 1.47 0.03 9.75 0.02 -0.20 0.20 0.37 0.02 10.15 0.00 -0.33 0.34 0.61 0.02 9.75 0.00 -1.37 -0.42 -0.28 -0.01 10.42 0.04 -1.39 -0.45 -0.28 0.01 9.49 0.01 -25.14 -13.89 -2.34 -3.19 6.96 -0.01 3.05 2.10 3.34 -15.98 0.01 0.01 3.13 1.11 79.87 -26.50 0.00 0.03 5.96 0.46 0.35 -26.01 -0.00 0.02 5.45 5.87 -11.63 3.21 6.94 -0.01 1.59 1.10 -4.24 16.02 -0.01 0.00 -6.09 8.00 -79.42 26.51 0.02 -0.03 -10.76 0.64 -2.32 26.00 0.01 -0.06 -6.87 18.03 9.34 
0.09 92.70 -0.26 -95.25 -0.22 -1.17 -9.23 0.01 0.05 -32.83 -2.34 -4.88 0.08 -42.00 0.03 17.14 3.43 1.74 0.17 -42.26 0.12 7.70 -1.63 6.03 9.22 -0.01 -0.03 19.07 -7.65 1.04 -0.03 -42.01 0.00 -11.69 10.05 3.45 0.12 -41.73 0.23 -0.31 -0.79 -1.53 0.02 10.46 0.03 -0.81 0.77 1.47 0.03 9.75 0.02 -0.20 0.20 0.37 0.02 10.15 0.00 -0.33 0.33 0.61 0.02 9.75 0.01 -1.37 -0.42 -0.28 -0.01 10.42 0.03 -1.39 -0.45 -0.28 0.01 9.49 0.00 -25.13 -13.87 -2.34 -3.19 6.96 -0.02 3.05 2.10 3.35 -15.99 0.01 0.01 3.16 1.12 79.88 -26.50 0.00 0.03 5.92 0.42 0.33 -26.01 -0.00 0.02 5.44 5.85 -11.63 3.21 6.93 -0.01 1.60 1.11 -4.22 16.02 -0.01 0.00 -6.13 7.98 -79.43 26.51 0.02 -0.04 -10.77 0.66 -2.33 26.00 0.02 -0.06 -6.86 18.03 9.34 
0.09 92.70 -0.26 -95.24 -0.20 -1.15 -9.23 0.01 0.04 -32.80 -2.36 -4.88 0.08 -42.00 0.03 17.10 3.44 1.74 0.18 -42.26 0.12 7.68 -1.64 6.02 9.22 -0.01 0.00 19.14 -7.56 1.03 -0.03 -42.01 0.03 -11.77 9.95 3.46 0.11 -41.73 0.24 -0.30 -0.79 -1.53 0.02 10.46 0.03 -0.81 0.76 1.47 0.03 9.75 0.02 -0.20 0.19 0.37 0.02 10.15 0.00 -0.33 0.33 0.61 0.02 9.75 0.01 -1.37 -0.42 -0.28 -0.00 10.42 0.03 -1.39 -0.45 -0.28 0.01 9.49 -0.01 -25.11 -13.88 -2.33 -3.19 6.96 -0.02 3.03 2.09 3.35 -15.99 0.01 0.01 3.20 1.13 79.88 -26.50 0.01 0.03 5.92 0.39 0.31 -26.01 -0.00 0.02 5.42 5.86 -11.61 3.21 6.93 -0.01 1.61 1.11 -4.22 16.02 -0.01 -0.00 -6.18 7.94 -79.44 26.51 0.02 -0.04 -10.76 0.67 -2.34 26.00 0.02 -0.06 -6.86 18.02 9.36 
0.09 92.70 -0.27 -95.22 -0.19 -1.14 -9.22 0.01 0.04 -32.80 -2.37 -4.89 0.08 -42.00 0.03 17.09 3.45 1.73 0.18 -42.26 0.12 7.68 -1.66 6.02 9.22 -0.02 -0.04 19.01 -7.66 1.01 -0.02 -42.01 -0.00 -11.66 10.07 3.46 0.10 -41.73 0.26 -0.28 -0.81 -1.54 0.02 10.46 0.03 -0.82 0.75 1.47 0.03 9.75 0.02 -0.20 0.19 0.37 0.02 10.15 0.00 -0.34 0.32 0.61 0.02 9.75 0.01 -1.37 -0.42 -0.28 -0.00 10.42 0.02 -1.38 -0.45 -0.27 0.01 9.50 -0.01 -25.08 -13.88 -2.31 -3.19 6.96 -0.01 3.00 2.09 3.35 -15.99 0.01 0.01 3.23 1.11 79.88 -26.50 0.01 0.03 5.89 0.38 0.31 -26.01 -0.00 0.02 5.41 5.86 -11.61 3.21 6.93 -0.00 1.64 1.08 -4.22 16.02 -0.01 -0.01 -6.26 7.96 -79.46 26.51 0.02 -0.05 -10.74 0.66 -2.33 26.00 0.02 -0.06 -6.83 18.04 9.35 
0.09 92.70 -0.27 -95.22 -0.18 -1.13 -9.22 0.01 0.04 -32.81 -2.38 -4.89 0.08 -42.00 0.03 17.10 3.44 1.74 0.18 -42.26 0.13 7.66 -1.65 6.01 9.23 -0.01 -0.01 19.05 -7.59 1.00 -0.03 -42.01 0.03 -11.71 10.00 3.46 0.09 -41.72 0.27 -0.27 -0.81 -1.54 0.02 10.46 0.03 -0.82 0.74 1.46 0.03 9.75 0.02 -0.20 0.19 0.37 0.02 10.15 0.00 -0.34 0.32 0.61 0.02 9.75 0.01 -1.37 -0.42 -0.28 -0.00 10.42 0.02 -1.38 -0.45 -0.27 0.00 9.50 -0.01 -25.04 -13.90 -2.30 -3.19 6.96 -0.02 3.00 2.11 3.35 -15.99 0.01 0.01 3.24 1.10 79.88 -26.50 0.01 0.03 5.90 0.35 0.28 -26.01 -0.01 0.02 5.39 5.84 -11.61 3.21 6.93 -0.00 1.65 1.07 -4.21 16.02 -0.01 -0.01 -6.31 7.96 -79.48 26.50 0.02 -0.04 -10.72 0.64 -2.32 26.00 0.02 -0.05 -6.84 18.07 9.34 
0.09 92.70 -0.27 -95.21 -0.17 -1.13 -9.23 0.01 0.04 -32.80 -2.37 -4.88 0.08 -42.00 0.03 17.09 3.45 1.72 0.17 -42.26 0.14 7.65 -1.66 6.00 9.23 -0.02 -0.02 19.00 -7.61 1.00 -0.03 -42.01 0.02 -11.66 10.02 3.47 0.09 -41.72 0.29 -0.28 -0.82 -1.55 0.02 10.46 0.03 -0.83 0.74 1.46 0.03 9.75 0.02 -0.21 0.19 0.37 0.02 10.15 -0.00 -0.34 0.32 0.61 0.02 9.75 0.00 -1.36 -0.43 -0.28 0.00 10.42 0.01 -1.38 -0.45 -0.27 -0.00 9.50 -0.02 -24.97 -13.96 -2.26 -3.19 6.96 -0.02 2.98 2.11 3.34 -15.99 0.01 0.01 3.24 1.12 79.89 -26.50 0.01 0.04 5.92 0.34 0.26 -26.01 -0.01 0.02 5.40 5.85 -11.61 3.21 6.93 -0.00 1.64 1.06 -4.22 16.02 -0.00 -0.01 -6.32 7.95 -79.48 26.50 0.02 -0.04 -10.71 0.63 -2.32 26.00 0.02 -0.05 -6.84 18.08 9.33 
0.08 92.70 -0.28 -95.21 -0.16 -1.13 -9.23 0.01 0.05 -32.76 -2.37 -4.85 0.08 -42.00 0.03 17.05 3.44 1.70 0.17 -42.26 0.14 7.64 -1.66 6.00 9.22 -0.02 -0.03 18.95 -7.66 1.01 -0.03 -42.01 -0.00 -11.59 10.06 3.48 0.08 -41.72 0.30 -0.31 -0.82 -1.57 0.02 10.46 0.02 -0.84 0.72 1.47 0.03 9.75 0.02 -0.21 0.18 0.37 0.02 10.15 -0.00 -0.34 0.31 0.61 0.02 9.75 0.00 -1.36 -0.43 -0.27 0.01 10.42 0.00 -1.37 -0.46 -0.27 -0.00 9.50 -0.02 -24.88 -14.02 -2.23 -3.19 6.96 -0.02 3.01 2.13 3.35 -16.00 0.01 0.02 3.22 1.14 79.89 -26.50 0.01 0.04 5.97 0.32 0.24 -26.01 -0.02 0.02 5.38 5.83 -11.63 3.21 6.93 -0.00 1.65 1.07 -4.21 16.02 -0.01 -0.01 -6.34 7.96 -79.50 26.50 0.02 -0.04 -10.73 0.62 -2.33 26.00 0.02 -0.04 -6.83 18.07 9.33 
0.08 92.70 -0.28 -95.20 -0.15 -1.13 -9.23 0.01 0.05 -32.73 -2.35 -4.84 0.08 -42.00 0.03 17.02 3.43 1.68 0.16 -42.26 0.14 7.63 -1.65 5.99 9.22 -0.02 -0.02 18.98 -7.62 1.03 -0.03 -42.01 0.01 -11.61 10.02 3.47 0.07 -41.72 0.31 -0.31 -0.83 -1.57 0.02 10.46 0.02 -0.84 0.73 1.47 0.03 9.75 0.01 -0.21 0.18 0.37 0.02 10.15 -0.00 -0.34 0.31 0.61 0.02 9.75 0.00 -1.35 -0.44 -0.27 0.01 10.42 -0.00 -1.37 -0.46 -0.27 -0.00 9.50 -0.02 -24.80 -14.11 -2.19 -3.19 6.96 -0.02 2.98 2.12 3.34 -15.99 0.01 0.02 3.20 1.18 79.88 -26.50 0.01 0.05 6.01 0.30 0.24 -26.01 -0.02 0.03 5.39 5.82 -11.64 3.21 6.93 -0.00 1.63 1.06 -4.21 16.02 -0.01 -0.00 -6.34 7.97 -79.51 26.50 0.02 -0.03 -10.74 0.61 -2.35 26.00 0.02 -0.04 -6.86 18.05 9.34 
0.08 92.70 -0.28 -95.20 -0.14 -1.12 -9.24 0.01 0.05 -32.73 -2.34 -4.82 0.08 -42.00 0.03 17.01 3.41 1.66 0.15 -42.26 0.15 7.63 -1.65 5.99 9.23 -0.01 0.02 19.10 -7.52 1.04 -0.04 -42.01 0.05 -11.71 9.89 3.48 0.07 -41.72 0.31 -0.34 -0.82 -1.58 0.02 10.46 0.02 -0.84 0.73 1.48 0.03 9.75 0.01 -0.21 0.18 0.37 0.02 10.15 -0.00 -0.34 0.31 0.62 0.02 9.75 0.00 -1.35 -0.44 -0.27 0.01 10.42 -0.01 -1.36 -0.47 -0.27 -0.00 9.50 -0.02 -24.69 -14.18 -2.15 -3.19 6.96 -0.02 2.98 2.11 3.34 -15.99 0.02 0.02 3.16 1.18 79.86 -26.50 0.01 0.05 6.06 0.29 0.22 -26.01 -0.02 0.02 5.39 5.81 -11.64 3.21 6.93 -0.01 1.59 1.05 -4.22 16.01 -0.01 -0.01 -6.34 7.96 -79.47 26.50 0.01 -0.03 -10.74 0.59 -2.41 26.00 0.02 -0.04 -6.85 18.05 9.34 
0.07 92.70 -0.28 -95.19 -0.14 -1.12 -9.24 0.01 0.05 -32.74 -2.32 -4.83 0.08 -42.00 0.04 17.01 3.40 1.66 0.14 -42.26 0.16 7.65 -1.66 5.99 9.22 -0.02 -0.02 19.01 -7.63 1.03 -0.04 -42.01 0.01 -11.63 10.01 3.46 0.06 -41.72 0.32 -0.33 -0.82 -1.58 0.03 10.46 0.02 -0.84 0.73 1.48 0.03 9.75 0.01 -0.21 0.19 0.37 0.02 10.15 -0.00 -0.35 0.32 0.62 0.02 9.75 -0.00 -1.34 -0.45 -0.27 0.01 10.42 -0.02 -1.36 -0.47 -0.27 0.00 9.50 -0.03 -24.58 -14.22 -2.11 -3.19 6.96 -0.02 2.97 2.10 3.34 -15.99 0.02 0.03 3.12 1.21 79.84 -26.50 0.00 0.05 6.11 0.24 0.21 -26.01 -0.02 0.03 5.42 5.82 -11.65 3.21 6.93 -0.01 1.58 1.04 -4.22 16.01 -0.01 -0.01 -6.32 7.98 -79.48 26.50 0.01 -0.03 -10.78 0.62 -2.43 26.00 0.03 -0.03 -6.86 18.07 9.32 
0.07 92.70 -0.29 -95.19 -0.13 -1.11 -9.23 0.01 0.05 -32.74 -2.33 -4.83 0.08 -42.00 0.04 16.98 3.39 1.66 0.14 -42.26 0.16 7.67 -1.65 6.00 9.20 -0.02 -0.02 19.04 -7.64 1.07 -0.05 -42.01 0.01 -11.66 10.00 3.41 0.05 -41.72 0.32 -0.34 -0.83 -1.58 0.03 10.46 0.01 -0.86 0.72 1.48 0.03 9.75 0.01 -0.21 0.18 0.37 0.02 10.15 -0.00 -0.35 0.31 0.62 0.02 9.75 -0.00 -1.34 -0.45 -0.27 0.01 10.42 -0.02 -1.35 -0.47 -0.26 0.01 9.50 -0.03 -24.46 -14.24 -2.08 -3.19 6.96 -0.02 2.97 2.12 3.33 -15.99 0.02 0.03 3.08 1.23 79.83 -26.50 0.00 0.06 6.18 0.21 0.21 -26.01 -0.02 0.03 5.44 5.81 -11.67 3.21 6.93 -0.02 1.57 1.05 -4.23 16.01 -0.01 -0.01 -6.31 7.99 -79.49 26.50 0.01 -0.03 -10.80 0.63 -2.43 26.00 0.03 -0.03 -6.87 18.09 9.30 
0.07 92.70 -0.29 -95.19 -0.13 -1.11 -9.23 0.01 0.05 -32.75 -2.33 -4.82 0.08 -42.00 0.03 16.97 3.39 1.65 0.14 -42.26 0.16 7.70 -1.65 5.97 9.21 -0.02 -0.03 19.01 -7.67 1.07 -0.04 -42.01 -0.00 -11.62 10.04 3.42 0.04 -41.72 0.33 -0.36 -0.83 -1.59 0.03 10.46 0.01 -0.87 0.73 1.48 0.03 9.75 0.01 -0.22 0.19 0.37 0.02 10.15 -0.01 -0.36 0.32 0.62 0.02 9.75 -0.00 -1.33 -0.45 -0.26 0.01 10.42 -0.02 -1.34 -0.48 -0.26 0.01 9.50 -0.03 -24.36 -14.24 -2.04 -3.19 6.96 -0.02 2.98 2.13 3.34 -15.99 0.02 0.03 3.04 1.24 79.81 -26.50 0.00 0.06 6.24 0.18 0.21 -26.01 -0.02 0.02 5.44 5.80 -11.70 3.21 6.93 -0.02 1.58 1.04 -4.23 16.01 -0.01 -0.00 -6.31 8.01 -79.49 26.50 0.02 -0.02 -10.84 0.68 -2.47 26.00 0.03 -0.04 -6.88 18.09 9.30 
0.08 92.70 -0.29 -95.18 -0.12 -1.10 -9.23 0.01 0.05 -32.73 -2.35 -4.82 0.08 -42.00 0.03 16.94 3.40 1.65 0.14 -42.25 0.17 7.70 -1.64 5.96 9.21 -0.01 0.01 19.12 -7.57 1.07 -0.05 -42.01 0.03 -11.73 9.92 3.41 0.03 -41.72 0.33 -0.37 -0.82 -1.60 0.03 10.46 0.01 -0.88 0.74 1.48 0.03 9.75 0.00 -0.22 0.19 0.37 0.02 10.15 -0.01 -0.36 0.32 0.62 0.02 9.75 -0.01 -1.33 -0.45 -0.26 0.01 10.42 -0.02 -1.34 -0.48 -0.26 0.01 9.50 -0.03 -24.27 -14.25 -2.02 -3.19 6.96 -0.02 2.98 2.13 3.33 -15.99 0.02 0.03 3.01 1.22 79.79 -26.50 0.00 0.05 6.29 0.17 0.20 -26.01 -0.02 0.02 5.43 5.80 -11.71 3.21 6.93 -0.02 1.56 1.03 -4.25 16.01 -0.01 -0.00 -6.30 8.01 -79.49 26.50 0.02 -0.02 -10.87 0.71 -2.48 26.00 0.03 -0.03 -6.87 18.10 9.29 
